<svg className="house" xmlns="http://www.w3.org/2000/svg" viewBox="0 0 24 24">
                        <g className="outline">
                            <path d="M22.601 7.49432L12.3602 1.97113C12.1341 1.84963 11.8635 1.84963 11.6375 1.97113L1.3987 7.49432C1.02974 7.69378 0.89188 8.15447 1.09157 8.52403C1.22841 8.77716 1.49094 8.92194 1.76057 8.92194C1.8822 8.92194 2.00688 8.89157 2.12142 8.83082L2.94754 8.38532L4.59875 20.0422C4.81567 21.2724 5.92459 22.13 7.29301 22.13H16.7016C18.072 22.13 19.1799 21.2714 19.4009 20.0169L21.0491 8.38329L21.8782 8.83082C22.2472 9.02623 22.7094 8.89157 22.9091 8.52302C23.1078 8.15548 22.9699 7.69479 22.601 7.49432V7.49432ZM17.8997 19.779C17.7913 20.3926 17.1871 20.6113 16.7036 20.6113H7.29503C6.80849 20.6113 6.20537 20.3926 6.10097 19.8033L4.37575 7.61582L11.9983 3.50304L19.6229 7.61379L17.8997 19.779V19.779Z" />
                            <path d="M8.21973 12.3C8.21973 14.384 9.91473 16.08 11.9997 16.08C14.0847 16.08 15.7797 14.384 15.7797 12.3C15.7797 10.216 14.0847 8.52002 11.9997 8.52002C9.91473 8.52002 8.21973 10.216 8.21973 12.3ZM14.2797 12.3C14.2797 13.558 13.2577 14.58 11.9997 14.58C10.7417 14.58 9.71973 13.558 9.71973 12.3C9.71973 11.042 10.7417 10.02 11.9997 10.02C13.2577 10.02 14.2797 11.042 14.2797 12.3Z" />
                        </g>
                        <path className="fill" d="M22.4824 7.448L12.4695 1.995C12.1753 1.835 11.8215 1.835 11.5282 1.995L1.52027 7.448C1.0387 7.712 0.859349 8.318 1.11896 8.804C1.29732 9.139 1.63918 9.329 1.99094 9.329C2.14948 9.329 2.31199 9.291 2.46161 9.209L3.18892 8.813L4.76442 20.063C4.97846 21.277 6.06248 22.125 7.40018 22.125H16.5976C17.9353 22.125 19.0193 21.277 19.2353 20.037L20.8088 8.812L21.5391 9.21C22.0197 9.473 22.6212 9.292 22.8808 8.806C23.1414 8.32 22.96 7.713 22.4805 7.451L22.4824 7.448ZM11.9989 15.533C10.2202 15.533 8.7785 14.078 8.7785 12.283C8.7785 10.488 10.2202 9.033 11.9989 9.033C13.7775 9.033 15.2192 10.488 15.2192 12.283C15.2192 14.078 13.7775 15.533 11.9989 15.533Z" />
                    </svg>