<svg width="26" height="24" viewBox="0 0 26 24" fill="none" xmlns="http://www.w3.org/2000/svg">
<mask id="mask0_13_24" style="mask-type:alpha" maskUnits="userSpaceOnUse" x="0" y="0" width="26" height="24">
<rect width="25.5429" height="24" fill="#D9D9D9"/>
</mask>
<g mask="url(#mask0_13_24)">
<path d="M12.6384 20C12.7094 20 12.7803 19.9833 12.8513 19.95C12.9222 19.9167 12.9754 19.8833 13.0109 19.85L21.738 11.65C21.9509 11.45 22.1061 11.225 22.2037 10.975C22.3012 10.725 22.35 10.475 22.35 10.225C22.35 9.95833 22.3012 9.70417 22.2037 9.4625C22.1061 9.22083 21.9509 9.00833 21.738 8.825L17.2148 4.575C17.0197 4.375 16.7935 4.22917 16.5363 4.1375C16.2791 4.04583 16.0086 4 15.7248 4C15.4588 4 15.1927 4.04583 14.9266 4.1375C14.6605 4.22917 14.4211 4.375 14.2082 4.575L13.9155 4.85L15.8845 6.725C16.1505 6.95833 16.3457 7.225 16.4698 7.525C16.594 7.825 16.6561 8.14167 16.6561 8.475C16.6561 9.175 16.4033 9.7625 15.8978 10.2375C15.3922 10.7125 14.767 10.95 14.022 10.95C13.6672 10.95 13.3258 10.8917 12.9976 10.775C12.6694 10.6583 12.3812 10.4833 12.1329 10.25L10.1373 8.4L5.48108 12.775C5.42786 12.825 5.38795 12.8792 5.36135 12.9375C5.33474 12.9958 5.32144 13.0583 5.32144 13.125C5.32144 13.2583 5.37465 13.3792 5.48108 13.4875C5.58751 13.5958 5.71167 13.65 5.85358 13.65C5.92453 13.65 5.99548 13.6333 6.06644 13.6C6.13739 13.5667 6.1906 13.5333 6.22608 13.5L9.84465 10.1L11.3347 11.5L7.74269 14.9C7.68947 14.95 7.64956 15.0042 7.62295 15.0625C7.59635 15.1208 7.58304 15.1833 7.58304 15.25C7.58304 15.3833 7.63626 15.5 7.74269 15.6C7.84911 15.7 7.97328 15.75 8.11519 15.75C8.18614 15.75 8.25709 15.7333 8.32804 15.7C8.399 15.6667 8.45221 15.6333 8.48769 15.6L12.1063 12.225L13.5963 13.625L10.0043 17.025C9.95108 17.0583 9.91117 17.1083 9.88456 17.175C9.85795 17.2417 9.84465 17.3083 9.84465 17.375C9.84465 17.5083 9.89786 17.625 10.0043 17.725C10.1107 17.825 10.2349 17.875 10.3768 17.875C10.4477 17.875 10.5143 17.8625 10.5763 17.8375C10.6384 17.8125 10.6961 17.775 10.7493 17.725L14.3679 14.35L15.8579 15.75L12.2393 19.15C12.1861 19.2 12.1462 19.2542 12.1196 19.3125C12.093 19.3708 12.0796 19.4333 12.0796 19.5C12.0796 19.6333 12.1373 19.75 12.2526 19.85C12.3679 19.95 12.4965 20 12.6384 20ZM12.6118 22C11.9555 22 11.3746 21.7958 10.869 21.3875C10.3635 20.9792 10.0664 20.4667 9.97769 19.85C9.37459 19.7667 8.86905 19.5333 8.46108 19.15C8.0531 18.7667 7.80477 18.2917 7.71608 17.725C7.11298 17.6417 6.61188 17.4042 6.21277 17.0125C5.81367 16.6208 5.56977 16.15 5.48108 15.6C4.80703 15.5167 4.25715 15.2417 3.83144 14.775C3.40572 14.3083 3.19286 13.7583 3.19286 13.125C3.19286 12.7917 3.25938 12.4708 3.39242 12.1625C3.52545 11.8542 3.71614 11.5833 3.96447 11.35L10.1373 5.575L13.6229 8.85C13.6583 8.9 13.7116 8.9375 13.7825 8.9625C13.8535 8.9875 13.9244 9 13.9954 9C14.155 9 14.288 8.95417 14.3945 8.8625C14.5009 8.77083 14.5541 8.65 14.5541 8.5C14.5541 8.43333 14.5408 8.36667 14.5142 8.3C14.4876 8.23333 14.4477 8.18333 14.3945 8.15L10.5897 4.575C10.3945 4.375 10.1684 4.22917 9.91117 4.1375C9.65397 4.04583 9.38346 4 9.09965 4C8.83358 4 8.56751 4.04583 8.30144 4.1375C8.03536 4.22917 7.7959 4.375 7.58304 4.575L3.83144 8.125C3.67179 8.275 3.53876 8.45 3.43233 8.65C3.3259 8.85 3.25495 9.05 3.21947 9.25C3.184 9.45 3.184 9.65417 3.21947 9.8625C3.25495 10.0708 3.3259 10.2667 3.43233 10.45L1.88911 11.9C1.58757 11.5167 1.36584 11.0958 1.22394 10.6375C1.08203 10.1792 1.02882 9.71667 1.06429 9.25C1.09977 8.78333 1.22394 8.32917 1.43679 7.8875C1.64965 7.44583 1.94233 7.05 2.31483 6.7L6.06644 3.175C6.49215 2.79167 6.96664 2.5 7.48992 2.3C8.01319 2.1 8.54977 2 9.09965 2C9.64953 2 10.1861 2.1 10.7094 2.3C11.2327 2.5 11.6983 2.79167 12.1063 3.175L12.3989 3.45L12.6916 3.175C13.1173 2.79167 13.5918 2.5 14.1151 2.3C14.6384 2.1 15.1749 2 15.7248 2C16.2747 2 16.8113 2.1 17.3346 2.3C17.8578 2.5 18.3235 2.79167 18.7314 3.175L23.228 7.4C23.636 7.78333 23.9464 8.225 24.1593 8.725C24.3722 9.225 24.4786 9.73333 24.4786 10.25C24.4786 10.7667 24.3722 11.2708 24.1593 11.7625C23.9464 12.2542 23.636 12.6917 23.228 13.075L14.5009 21.25C14.2526 21.4833 13.9643 21.6667 13.6362 21.8C13.308 21.9333 12.9666 22 12.6118 22Z" fill="#1C1B1F"/>
</g>
</svg>
