<svg width="40" height="41" viewBox="0 0 40 41" fill="none" xmlns="http://www.w3.org/2000/svg">
<rect x="0.5" y="1.39499" width="39" height="38.6232" rx="5.5" fill="#D9D9D9" stroke="black"/>
<mask id="mask0_7_162" style="mask-type:alpha" maskUnits="userSpaceOnUse" x="5" y="5" width="30" height="30">
<rect x="5.88235" y="5.6978" width="28.2353" height="28.8169" fill="#D9D9D9"/>
</mask>
<g mask="url(#mask0_7_162)">
<path d="M22.3529 26.1098H28.2353V20.1062H25.8823V23.7084H22.3529V26.1098ZM11.7647 20.1062H14.1176V16.5041H17.6471V14.1027H11.7647V20.1062ZM10.5882 29.7119C9.94117 29.7119 9.38725 29.4767 8.92647 29.0065C8.46568 28.5362 8.23529 27.9708 8.23529 27.3105V12.902C8.23529 12.2416 8.46568 11.6763 8.92647 11.206C9.38725 10.7358 9.94117 10.5006 10.5882 10.5006H29.4118C30.0588 10.5006 30.6127 10.7358 31.0735 11.206C31.5343 11.6763 31.7647 12.2416 31.7647 12.902V27.3105C31.7647 27.9708 31.5343 28.5362 31.0735 29.0065C30.6127 29.4767 30.0588 29.7119 29.4118 29.7119H10.5882ZM10.5882 27.3105H29.4118V12.902H10.5882V27.3105Z" fill="#1C1B1F"/>
</g>
</svg>
