<svg width="40" height="42" viewBox="0 0 40 42" fill="none" xmlns="http://www.w3.org/2000/svg">
<rect x="0.5" y="1.37439" width="39" height="39.8239" rx="5.5" fill="#D9D9D9" stroke="black"/>
<mask id="mask0_7_163" style="mask-type:alpha" maskUnits="userSpaceOnUse" x="5" y="5" width="30" height="31">
<rect x="5.88235" y="5.82274" width="28.2353" height="29.6901" fill="#D9D9D9"/>
</mask>
<g mask="url(#mask0_7_163)">
<path d="M14.1176 16.9565C13.4706 16.9565 12.9167 16.7143 12.4559 16.2297C11.9951 15.7452 11.7647 15.1628 11.7647 14.4824C11.7647 13.802 11.9951 13.2195 12.4559 12.735C12.9167 12.2504 13.4706 12.0082 14.1176 12.0082C14.7647 12.0082 15.3186 12.2504 15.7794 12.735C16.2402 13.2195 16.4706 13.802 16.4706 14.4824C16.4706 15.1628 16.2402 15.7452 15.7794 16.2297C15.3186 16.7143 14.7647 16.9565 14.1176 16.9565ZM11.7647 33.0387C11.4314 33.0387 11.152 32.9201 10.9265 32.683C10.701 32.4459 10.5882 32.1521 10.5882 31.8016C9.94117 31.8016 9.38725 31.5593 8.92647 31.0748C8.46568 30.5903 8.23529 30.0078 8.23529 29.3274V21.9049H11.7647V20.9771C11.7647 20.1936 12.0196 19.5338 12.5294 18.9977C13.0392 18.4617 13.6667 18.1936 14.4118 18.1936C14.8039 18.1936 15.1667 18.2761 15.5 18.441C15.8333 18.606 16.1373 18.8328 16.4118 19.1214L18.0588 21.0389C18.2157 21.2039 18.3676 21.3585 18.5147 21.5028C18.6618 21.6472 18.8235 21.7812 19 21.9049H27.0588V11.8226C27.0588 11.534 26.9608 11.2865 26.7647 11.0804C26.5686 10.8742 26.3333 10.7711 26.0588 10.7711C25.9412 10.7711 25.8284 10.7969 25.7206 10.8484C25.6127 10.9 25.5098 10.9773 25.4118 11.0804L23.9412 12.6267C24.0392 12.9772 24.0588 13.3226 24 13.6628C23.9412 14.003 23.8235 14.3174 23.6471 14.6061L20.4118 11.1422C20.6863 10.9567 20.9804 10.8381 21.2941 10.7866C21.6078 10.735 21.9216 10.7711 22.2353 10.8948L23.7059 9.34844C24.0196 9.01855 24.3774 8.76083 24.7794 8.57526C25.1814 8.3897 25.6078 8.29692 26.0588 8.29692C27 8.29692 27.7941 8.63712 28.4412 9.31752C29.0882 9.99792 29.4118 10.8329 29.4118 11.8226V21.9049H31.7647V29.3274C31.7647 30.0078 31.5343 30.5903 31.0735 31.0748C30.6127 31.5593 30.0588 31.8016 29.4118 31.8016C29.4118 32.1521 29.299 32.4459 29.0735 32.683C28.848 32.9201 28.5686 33.0387 28.2353 33.0387H11.7647ZM10.5882 29.3274H29.4118V24.3791H10.5882V29.3274Z" fill="#1C1B1F"/>
</g>
</svg>
