<svg width="40" height="42" viewBox="0 0 40 42" fill="none" xmlns="http://www.w3.org/2000/svg">
<rect x="0.5" y="1.39499" width="39" height="38.5868" rx="5.5" fill="#D9D9D9" stroke="black"/>
<mask id="mask0_6_114" style="mask-type:alpha" maskUnits="userSpaceOnUse" x="0" y="3" width="37" height="39">
<rect y="3.36917" width="36.4706" height="38.3497" fill="#D9D9D9"/>
</mask>
<g mask="url(#mask0_6_114)">
<path d="M5.88235 30.7654V21.6799C5.88235 21.1124 6.0116 20.5485 6.27008 19.9882C6.52854 19.428 6.90584 18.9874 7.40196 18.6664V14.516C7.40196 13.4678 7.74306 12.585 8.42527 11.8677C9.10744 11.1504 9.94695 10.7917 10.9438 10.7917H17.7723C18.3087 10.7917 18.7909 10.9148 19.2189 11.161C19.6468 11.4071 20.0134 11.7409 20.3186 12.1622C20.6238 11.7409 20.9878 11.4071 21.4105 11.161C21.8333 10.9148 22.3129 10.7917 22.8493 10.7917H29.6778C30.6746 10.7917 31.5167 11.1504 32.2041 11.8677C32.8915 12.585 33.2352 13.4678 33.2352 14.516V18.6664C33.7314 18.9874 34.1086 19.428 34.3671 19.9882C34.6256 20.5485 34.7548 21.1124 34.7548 21.6799V30.7654H32.8456V27.5695H7.79155V30.7654H5.88235ZM21.2732 18.0744H31.326V14.516C31.326 14.0236 31.1668 13.6144 30.8482 13.2883C30.5297 12.9623 30.1396 12.7993 29.6778 12.7993H22.7928C22.3622 12.7993 22.0013 12.9695 21.7101 13.3099C21.4188 13.6503 21.2732 14.0523 21.2732 14.516V18.0744ZM9.31116 18.0744H19.364V14.516C19.364 14.0523 19.2184 13.6503 18.9271 13.3099C18.6359 12.9695 18.275 12.7993 17.8444 12.7993H10.9438C10.4924 12.7993 10.1075 12.9667 9.78896 13.3017C9.47043 13.6366 9.31116 14.0414 9.31116 14.516V18.0744ZM7.79155 25.562H32.8456V21.6799C32.8456 21.2339 32.7 20.8561 32.4087 20.5465C32.1175 20.2368 31.7566 20.082 31.326 20.082H9.31116C8.8806 20.082 8.5197 20.2368 8.22844 20.5465C7.93718 20.8561 7.79155 21.2339 7.79155 21.6799V25.562Z" fill="#1C1B1F"/>
</g>
</svg>
