<svg width="26" height="24" viewBox="0 0 26 24" fill="none" xmlns="http://www.w3.org/2000/svg">
<mask id="mask0_13_40" style="mask-type:alpha" maskUnits="userSpaceOnUse" x="0" y="0" width="26" height="24">
<rect x="0.400024" width="25.5429" height="24" fill="#D9D9D9"/>
</mask>
<g mask="url(#mask0_13_40)">
<path d="M9.97859 14H12.1072V6H9.97859V14ZM14.2357 14H16.3643V6H14.2357V14ZM2.52859 22V4C2.52859 3.45 2.73702 2.97917 3.15386 2.5875C3.57071 2.19583 4.07181 2 4.65717 2H21.6857C22.2711 2 22.7722 2.19583 23.189 2.5875C23.6059 2.97917 23.8143 3.45 23.8143 4V16C23.8143 16.55 23.6059 17.0208 23.189 17.4125C22.7722 17.8042 22.2711 18 21.6857 18H6.78574L2.52859 22ZM5.88109 16H21.6857V4H4.65717V17.125L5.88109 16Z" fill="#1C1B1F"/>
</g>
</svg>
