<svg width="24" height="25" viewBox="0 0 24 25" fill="none" xmlns="http://www.w3.org/2000/svg">
<path d="M12 22.2468L3.515 13.7618C2.38969 12.6367 1.75744 11.1105 1.75735 9.5192C1.75725 7.92786 2.38932 6.40166 3.5145 5.27635C4.63968 4.15103 6.16581 3.51879 7.75715 3.51869C9.34849 3.5186 10.8747 4.15067 12 5.27585C13.1259 4.15194 14.6517 3.5207 16.2425 3.5207C17.8333 3.5207 19.3591 4.15194 20.485 5.27585C21.6084 6.40196 22.2393 7.92768 22.2393 9.51835C22.2393 11.109 21.6084 12.6347 20.485 13.7608L12 22.2468ZM7.757 5.51885C6.9658 5.51882 6.19235 5.75343 5.5345 6.19302C4.87664 6.63261 4.36393 7.25741 4.06121 7.98842C3.75849 8.71942 3.67936 9.52379 3.83383 10.2998C3.98829 11.0757 4.36942 11.7885 4.929 12.3478L12 19.4188L19.071 12.3478C19.4771 11.9508 19.7941 11.4717 20.0006 10.9426C20.2072 10.4135 20.2988 9.84648 20.2692 9.27925C20.2396 8.71202 20.0895 8.15759 19.8289 7.65287C19.5684 7.14815 19.2033 6.70471 18.7581 6.35206C18.3128 5.99941 17.7975 5.74563 17.2465 5.60762C16.6955 5.4696 16.1215 5.45052 15.5626 5.55163C15.0036 5.65274 14.4726 5.87174 14.0049 6.19404C13.5372 6.51633 13.1435 6.93455 12.85 7.42085L12 8.79285L11.15 7.42085C10.7991 6.83588 10.3014 6.3528 9.70624 6.01952C9.11106 5.68623 8.43911 5.51433 7.757 5.52085V5.51885Z" fill="#F86338"/>
</svg>
