<svg width="40" height="41" viewBox="0 0 40 41" fill="none" xmlns="http://www.w3.org/2000/svg">
<rect x="0.5" y="1.39499" width="39" height="38.6232" rx="5.5" fill="#D9D9D9" stroke="black"/>
<mask id="mask0_7_161" style="mask-type:alpha" maskUnits="userSpaceOnUse" x="5" y="6" width="30" height="30">
<rect x="5.88235" y="6.89851" width="28.2353" height="28.8169" fill="#D9D9D9"/>
</mask>
<g mask="url(#mask0_7_161)">
<path d="M22.353 22.5076C21.3726 22.5076 20.5392 22.1574 19.853 21.457C19.1667 20.7566 18.8235 19.9061 18.8235 18.9055C18.8235 17.905 19.1667 17.0545 19.853 16.354C20.5392 15.6536 21.3726 15.3034 22.353 15.3034C23.3333 15.3034 24.1667 15.6536 24.853 16.354C25.5392 17.0545 25.8824 17.905 25.8824 18.9055C25.8824 19.9061 25.5392 20.7566 24.853 21.457C24.1667 22.1574 23.3333 22.5076 22.353 22.5076ZM14.1177 26.1098C13.4706 26.1098 12.9167 25.8746 12.4559 25.4043C11.9951 24.9341 11.7647 24.3687 11.7647 23.7084V14.1027C11.7647 13.4423 11.9951 12.877 12.4559 12.4067C12.9167 11.9365 13.4706 11.7013 14.1177 11.7013H30.5882C31.2353 11.7013 31.7892 11.9365 32.25 12.4067C32.7108 12.877 32.9412 13.4423 32.9412 14.1027V23.7084C32.9412 24.3687 32.7108 24.9341 32.25 25.4043C31.7892 25.8746 31.2353 26.1098 30.5882 26.1098H14.1177ZM16.4706 23.7084H28.2353C28.2353 23.048 28.4657 22.4826 28.9265 22.0124C29.3873 21.5421 29.9412 21.3069 30.5882 21.3069V16.5041C29.9412 16.5041 29.3873 16.269 28.9265 15.7987C28.4657 15.3284 28.2353 14.7631 28.2353 14.1027H16.4706C16.4706 14.7631 16.2402 15.3284 15.7794 15.7987C15.3186 16.269 14.7647 16.5041 14.1177 16.5041V21.3069C14.7647 21.3069 15.3186 21.5421 15.7794 22.0124C16.2402 22.4826 16.4706 23.048 16.4706 23.7084ZM29.4118 30.9126H9.41178C8.76472 30.9126 8.2108 30.6774 7.75001 30.2072C7.28923 29.7369 7.05884 29.1716 7.05884 28.5112V15.3034H9.41178V28.5112H29.4118V30.9126Z" fill="#1C1B1F"/>
</g>
</svg>
